<?xml version="1.0" standalone="no"?>
<!DOCTYPE svg PUBLIC "-//W3C//DTD SVG 20010904//EN"
 "http://www.w3.org/TR/2001/REC-SVG-20010904/DTD/svg10.dtd">
<svg version="1.0" xmlns="http://www.w3.org/2000/svg"
 width="512.000000pt" height="512.000000pt" viewBox="0 0 512.000000 512.000000"
 preserveAspectRatio="xMidYMid meet">
<g transform="translate(0.000000,512.000000) scale(0.050000,-0.050000)"
fill="#ffffff" stroke="none">
<path d="M5084 10216 c-16 -16 -24 -108 -24 -280 0 -223 -4 -256 -33 -256
-261 0 -362 -460 -144 -662 l56 -53 -84 -56 c-337 -220 -650 -581 -685 -790
-12 -72 -28 -88 -177 -186 -527 -347 -896 -946 -945 -1534 l-14 -159 -303 0
c-489 0 -641 -114 -641 -478 1 -366 128 -469 592 -478 l318 -7 0 -1933 0
-1934 -249 7 c-515 13 -727 -178 -656 -592 49 -284 183 -365 609 -365 l296 0
0 -209 c0 -187 4 -212 39 -230 71 -39 4191 -28 4230 10 24 25 31 76 31 229 l0
197 317 7 c465 9 596 123 580 504 -14 339 -154 442 -602 442 l-295 0 0 1935 0
1935 281 0 c465 0 618 119 618 480 0 366 -151 480 -636 480 l-298 0 -12 63
c-7 34 -13 89 -13 121 0 476 -462 1208 -958 1519 -133 83 -140 92 -181 216
-77 229 -285 473 -597 700 l-147 106 61 63 c197 203 144 519 -107 633 l-78 36
5 223 c6 277 -55 395 -154 296z m189 -731 c134 -109 109 -313 -46 -377 -226
-95 -410 205 -223 362 72 61 203 68 269 15z m231 -851 c179 -143 291 -262 383
-409 70 -112 72 -110 -78 -54 -393 148 -1003 140 -1374 -17 -259 -110 202 403
603 671 l108 73 92 -62 c51 -34 170 -125 266 -202z m-25 -555 c278 -45 572
-175 824 -364 l167 -125 -205 -6 c-224 -6 -274 -33 -225 -124 25 -48 23 -47
336 -41 276 6 243 21 373 -171 64 -95 211 -370 211 -396 0 -7 -264 -12 -588
-12 -638 0 -651 -2 -624 -109 18 -72 40 -74 687 -67 l584 6 19 -90 c11 -49 25
-146 33 -215 l14 -125 -1943 0 -1943 0 12 105 c133 1138 1150 1915 2268 1734z
m2422 -2049 c165 -86 165 -454 0 -540 -52 -26 -386 -30 -2770 -30 l-2712 0
-69 65 c-129 122 -137 120 474 116 581 -4 636 5 636 98 0 75 -48 81 -634 81
l-570 0 13 55 c16 63 83 142 141 166 81 34 5425 23 5491 -11z m-781 -2685 l0
-1935 -145 4 -145 3 -10 1197 c-11 1343 1 1241 -164 1400 -178 172 -494 172
-672 0 -165 -159 -153 -56 -164 -1404 l-10 -1200 -76 0 -76 0 -4 1600 c-4
1577 -5 1601 -46 1690 -192 412 -729 418 -921 10 l-47 -100 0 -1604 0 -1603
-80 1 -80 1 0 1122 c0 1243 0 1231 -88 1378 -217 363 -782 292 -902 -113 -25
-82 -30 -292 -30 -1241 l0 -1141 -145 4 -145 3 -5 1732 -5 1731 439 0 c481 0
520 10 461 120 -26 49 16 45 -485 40 l-415 -4 0 122 0 122 1980 0 1980 0 0
-1935z m-1831 1455 c44 -22 104 -73 131 -113 l50 -74 5 -1602 6 -1601 -151 0
-150 0 0 524 c0 498 -2 526 -39 545 -125 67 -144 -11 -140 -574 l4 -494 -93 0
-93 0 1 1586 c1 1678 0 1664 92 1747 115 101 244 121 377 56z m-1228 -840 c80
-22 186 -123 218 -206 14 -38 21 -442 21 -1200 l0 -1144 -190 0 -190 0 0 666
c0 697 -5 744 -87 744 -92 0 -93 -9 -93 -734 l0 -686 -50 0 -50 0 0 1151 c0
1251 -2 1230 113 1337 88 82 188 105 308 72z m2429 -38 c171 -98 174 -121 166
-1462 -6 -996 -8 -1050 -42 -1050 -34 0 -36 38 -35 695 2 730 -3 775 -86 775
-92 0 -93 -7 -93 -759 l0 -711 -205 4 -205 4 0 1156 c0 1036 3 1162 33 1216
94 172 298 230 467 132z m1451 -2754 c34 -34 69 -94 78 -135 l17 -73 -254 0
c-261 0 -302 -11 -302 -83 0 -80 52 -97 291 -97 126 0 229 -8 229 -18 0 -40
-125 -120 -205 -132 -226 -32 -5364 -1 -5412 33 -172 122 -162 452 17 542 66
33 229 35 2775 30 l2704 -5 62 -62z m-821 -848 l0 -140 -1980 0 -1980 0 0 140
0 140 1980 0 1980 0 0 -140z"/>
<path d="M1047 6375 c-528 -588 -829 -2351 -636 -3725 128 -910 550 -1967 736
-1844 66 44 62 81 -25 219 -601 951 -775 2752 -403 4177 98 378 190 596 443
1054 l48 86 -47 39 c-60 49 -67 49 -116 -6z"/>
<path d="M9084 6389 c-59 -42 -56 -70 23 -194 807 -1262 812 -3902 11 -5170
-87 -138 -91 -175 -25 -219 60 -40 118 17 246 244 749 1325 732 3861 -34 5160
-122 205 -150 228 -221 179z"/>
<path d="M1437 5725 c-617 -742 -713 -2853 -178 -3945 142 -290 192 -352 270
-332 82 20 76 68 -29 250 -562 974 -561 2831 1 3805 84 147 98 182 79 216 -26
50 -103 53 -143 6z"/>
<path d="M8660 5721 c-19 -36 -7 -69 79 -218 562 -974 563 -2831 1 -3805 -105
-182 -111 -230 -29 -250 60 -15 80 -2 144 99 471 742 618 2135 344 3248 -156
632 -437 1115 -539 926z"/>
<path d="M1833 5255 c-375 -500 -512 -1728 -291 -2613 102 -408 283 -762 390
-762 100 0 96 63 -20 284 -427 810 -402 2246 50 2973 101 163 -15 269 -129
118z"/>
<path d="M8239 5278 c-19 -35 -12 -58 39 -141 469 -754 472 -2294 7 -3060 -93
-154 -11 -287 100 -162 360 405 523 1599 342 2515 -110 560 -386 1039 -488
848z"/>
</g>
</svg>
